<?xml version="1.0" encoding="UTF-8"?> <!-- Generator: Adobe Illustrator 21.1.0, SVG Export Plug-In . SVG Version: 6.00 Build 0) --> <svg xmlns="http://www.w3.org/2000/svg" xmlns:xlink="http://www.w3.org/1999/xlink" id="Layer_1" x="0px" y="0px" viewBox="0 0 100.2 100.2" style="enable-background:new 0 0 100.2 100.2;" xml:space="preserve"> <style type="text/css"> .st0{fill:#FF542E;} </style> <g> <path class="st0" d="M66.3,4.6c-0.5-0.3-1-0.3-1.5,0C64.3,4.8,64,5.3,64,5.8l0,25.5c-4.5-1.5-9.2-2.3-14-2.3c-4.8,0-9.5,0.8-14,2.3 V7.1c0-0.5-0.3-1-0.8-1.3c-0.5-0.3-1.1-0.2-1.5,0C15.5,17.3,6.6,32.5,6.6,52.4c0,24,19.4,43.5,43.3,43.5s43.3-19.5,43.3-43.5 C93.3,31.7,84.4,16.1,66.3,4.6z M50,92.9c-22.2,0-40.3-18.2-40.3-40.5c0-17.9,7.6-31.8,23.4-42.5v23.3c0,0.2,0,0.4,0.1,0.5l0.1,0.2 c0.1,0.4,0.4,0.7,0.8,0.8c0.4,0.2,0.8,0.2,1.2,0C39.8,32.9,44.8,32,50,32c5.2,0,10.2,1,14.9,2.9c0.5,0.2,1,0.1,1.4-0.1 S67,34,67,33.5l0-24.8c15.6,10.8,23.3,25.1,23.3,43.8C90.3,74.8,72.2,92.9,50,92.9z"></path> <path class="st0" d="M39.3,54.7c0,0.8,0.7,1.5,1.5,1.5s1.5-0.7,1.5-1.5c0-4.1-3.6-7.5-8-7.5s-8,3.4-8,7.5c0,0.8,0.7,1.5,1.5,1.5 s1.5-0.7,1.5-1.5c0-2.5,2.2-4.5,5-4.5S39.3,52.3,39.3,54.7z"></path> <path class="st0" d="M65.6,47.2c-4.4,0-8,3.4-8,7.5c0,0.8,0.7,1.5,1.5,1.5s1.5-0.7,1.5-1.5c0-2.5,2.2-4.5,5-4.5c2.8,0,5,2,5,4.5 c0,0.8,0.7,1.5,1.5,1.5s1.5-0.7,1.5-1.5C73.6,50.6,70,47.2,65.6,47.2z"></path> <path class="st0" d="M65.8,70.9c-0.8,0-1.5,0.7-1.5,1.5c0,3.6-2.9,6.5-6.5,6.5c-3.5,0-6.3-2.7-6.5-6.2l5.4-8.2 c0.3-0.5,0.3-1.1,0.1-1.5c-0.3-0.5-0.8-0.8-1.3-0.8h-12c-0.6,0-1.1,0.3-1.3,0.8c-0.3,0.5-0.2,1.1,0.1,1.5l5.4,8.2 c-0.2,3.4-3,6.2-6.5,6.2c-3.6,0-6.5-2.9-6.5-6.5c0-0.8-0.7-1.5-1.5-1.5s-1.5,0.7-1.5,1.5c0,5.2,4.3,9.5,9.5,9.5 c3.6,0,6.7-2,8.3-4.9c1.6,2.9,4.7,4.9,8.3,4.9c5.2,0,9.5-4.3,9.5-9.5C67.3,71.6,66.6,70.9,65.8,70.9z M52.7,65.2L49.5,70l-3.2-4.8 H52.7z"></path> </g> <polygon class="st0" points="49.5,72.1 43.8,64 54.3,64 "></polygon> </svg> 