<?xml version="1.0" encoding="UTF-8"?> <!-- Generator: Adobe Illustrator 21.1.0, SVG Export Plug-In . SVG Version: 6.00 Build 0) --> <svg xmlns="http://www.w3.org/2000/svg" xmlns:xlink="http://www.w3.org/1999/xlink" id="Layer_1" x="0px" y="0px" viewBox="0 0 100.2 100.2" style="enable-background:new 0 0 100.2 100.2;" xml:space="preserve"> <style type="text/css"> .st0{fill:#FF542E;} </style> <path class="st0" d="M89.8,13.7c-4.9-4.6-12.4-6-18.2-3.4c-2.9,1.3-7.7,4.7-8.1,13H37.1c-0.4-8.3-5.2-11.7-8.1-13 c-5.8-2.6-13.3-1.1-18.2,3.4c-6.4,6-10.4,16.6-5.5,25.2c1.5,2.7,6,8.9,7.8,11.4c0,0.1-0.1,0.3-0.1,0.5v14.5c0,14.9,12.2,27,27.1,27 h19.7c15,0,27.1-12.1,27.1-27V50.9c1.4-2,6.6-9.1,8.3-12C100.1,30.2,96.2,19.7,89.8,13.7z M12.8,15.9c2.7-2.5,6.4-3.9,10-3.9 c1.7,0,3.4,0.3,4.9,1c4,1.8,6.3,5.7,6.4,11.2L15.1,48c-2-2.7-5.9-8.2-7.3-10.6C4.7,31.9,5.4,22.7,12.8,15.9z M51.2,74.3 c-4.6,0-8.5-2.3-8.5-5s3.9-5,8.5-5s8.5,2.3,8.5,5S55.8,74.3,51.2,74.3z M59.9,89.2H53V77.2c5.5-0.6,9.7-3.8,9.7-7.9 c0-4.5-5.1-8-11.5-8c-6.4,0-11.5,3.5-11.5,8c0,4.2,4.4,7.6,10.3,8v12h-9.9c-13.3,0-24.1-10.7-24.1-24V51.7c0.1-0.1,0.2-0.2,0.3-0.3 l20-25.2c0.1,0,0.2,0,0.2,0h27c0.2,0,0.4-0.1,0.6-0.1l19.9,25v14.2C84,78.5,73.2,89.2,59.9,89.2z M92.6,37.4 c-1.3,2.4-5.3,7.9-7.3,10.6l-19-23.9c0.1-5.4,2.3-9.4,6.4-11.2c4.7-2.1,10.9-0.8,14.9,2.9C95.1,22.7,95.8,31.9,92.6,37.4z"></path> <ellipse class="st0" cx="51" cy="69.2" rx="10" ry="6.8"></ellipse> <path class="st0" d="M40.4,53.7c0,0.8,0.7,1.5,1.5,1.5s1.5-0.7,1.5-1.5c0-4.1-3.6-7.5-8-7.5s-8,3.4-8,7.5c0,0.8,0.7,1.5,1.5,1.5 s1.5-0.7,1.5-1.5c0-2.5,2.2-4.5,5-4.5S40.4,51.3,40.4,53.7z"></path> <path class="st0" d="M66.7,46.2c-4.4,0-8,3.4-8,7.5c0,0.8,0.7,1.5,1.5,1.5s1.5-0.7,1.5-1.5c0-2.5,2.2-4.5,5-4.5c2.8,0,5,2,5,4.5 c0,0.8,0.7,1.5,1.5,1.5s1.5-0.7,1.5-1.5C74.7,49.6,71.1,46.2,66.7,46.2z"></path> </svg> 