<?xml version="1.0" encoding="UTF-8"?> <!-- Generator: Adobe Illustrator 21.1.0, SVG Export Plug-In . SVG Version: 6.00 Build 0) --> <svg xmlns="http://www.w3.org/2000/svg" xmlns:xlink="http://www.w3.org/1999/xlink" id="Layer_1" x="0px" y="0px" viewBox="0 0 100.2 100.2" style="enable-background:new 0 0 100.2 100.2;" xml:space="preserve"> <style type="text/css"> .st0{fill:#FF542E;} </style> <path class="st0" d="M90.9,66.4l-3,0.5C90,62,91.1,56.7,91.1,51c0-8.6-2.6-16.5-7.1-23.1c0.4,0,0.7,0.1,1.1,0.1c5,0,9-4,9-9 s-4-9-9-9s-9,4-9,9c0,0.1,0,0.2,0,0.3C69.1,13.5,60,10,50.1,10s-18.9,3.5-26,9.3c0-0.1,0-0.2,0-0.3c0-5-4-9-9-9s-9,4-9,9s4,9,9,9 c0.4,0,0.8,0,1.1-0.1C11.8,34.5,9.1,42.5,9.1,51c0,5.7,1.2,11.2,3.3,16.1l-1.3-0.2c-0.8-0.1-1.6,0.5-1.7,1.3s0.5,1.6,1.3,1.7 l3.3,0.5c1.6,2.9,3.5,5.6,5.7,8.1l-4.2,0.9c-0.8,0.2-1.3,1-1.2,1.8c0.2,0.7,0.8,1.2,1.5,1.2c0.1,0,0.2,0,0.3,0l6.1-1.3 c7.3,6.8,17.1,11,27.9,11c10.6,0,20.3-4,27.5-10.7l8.2,1.6c0.1,0,0.2,0,0.3,0c0.7,0,1.3-0.5,1.5-1.2c0.2-0.8-0.4-1.6-1.2-1.8 l-6.2-1.2c2.4-2.6,4.4-5.4,6.1-8.6l5.1-0.9c0.8-0.1,1.4-0.9,1.2-1.7S91.7,66.2,90.9,66.4z M85.1,13c3.3,0,6,2.7,6,6s-2.7,6-6,6 s-6-2.7-6-6S81.8,13,85.1,13z M9.1,19c0-3.3,2.7-6,6-6s6,2.7,6,6s-2.7,6-6,6S9.1,22.3,9.1,19z M76.7,78.1l-5.3-1.1 c-0.8-0.2-1.6,0.4-1.8,1.2c-0.2,0.8,0.4,1.6,1.2,1.8l3.1,0.6C67.9,85.5,60.3,88.6,52,89V76.2h3.5c0.8,0,1.5-0.7,1.5-1.5 s-0.7-1.5-1.5-1.5h-10c-0.8,0-1.5,0.7-1.5,1.5s0.7,1.5,1.5,1.5H49V89c-8.8-0.3-16.8-3.5-23.2-8.8l4.3-0.9c0.8-0.2,1.3-1,1.2-1.8 c-0.2-0.8-1-1.3-1.8-1.2l-6.4,1.4c-2-2.1-3.8-4.3-5.4-6.8l13.9,2c0.1,0,0.1,0,0.2,0c0.7,0,1.4-0.5,1.5-1.3c0.1-0.8-0.5-1.6-1.3-1.7 L16,67.6c-2.5-5-3.8-10.7-3.8-16.6c0-21,17-38,38-38s38,17,38,38c0,5.9-1.4,11.5-3.8,16.5l-15.4,2.8c-0.8,0.1-1.4,0.9-1.2,1.7 c0.1,0.7,0.8,1.2,1.5,1.2c0.1,0,0.2,0,0.3,0l13-2.4C80.8,73.6,78.9,76,76.7,78.1z"></path> <path class="st0" d="M39.5,56.6c0,0.8,0.7,1.5,1.5,1.5s1.5-0.7,1.5-1.5c0-4.1-3.6-7.5-8-7.5s-8,3.4-8,7.5c0,0.8,0.7,1.5,1.5,1.5 s1.5-0.7,1.5-1.5c0-2.5,2.2-4.5,5-4.5S39.5,54.1,39.5,56.6z"></path> <path class="st0" d="M65.8,49.1c-4.4,0-8,3.4-8,7.5c0,0.8,0.7,1.5,1.5,1.5s1.5-0.7,1.5-1.5c0-2.5,2.2-4.5,5-4.5c2.8,0,5,2,5,4.5 c0,0.8,0.7,1.5,1.5,1.5s1.5-0.7,1.5-1.5C73.8,52.4,70.2,49.1,65.8,49.1z"></path> </svg> 